# xmcd CD database file
#
# Track frame offsets:
#	150
#	8882
#	21928
#	32822
#	43838
#	63034
#	73467
#	96412
#	107381
#	121510
#	132201
#	142471
#	158367
#	167248
#	178073
#	190743
#	206732
#	219229
#
# Disc length: 3187 seconds
#
# Revision: 2
# Processed by: cddbd v1.5.2PL0 Copyright (c) Steve Scherf et al.
# Submitted via: CDex 1.51
#
DISCID=010c7112
DTITLE=Various Artist - Christmas Rarities
DYEAR=2007
DGENRE=XMAS
TTITLE0=01 - Peggy Lee - Happy holiday
TTITLE1=02 - Dean Martin - Christmas blues
TTITLE2=03 - Carly Simon - I'll be home for Christmas
TTITLE3=04 - Otis Redding - Merry Christmas baby
TTITLE4=05 - Sergio Mendes and Lani Hall - The Christmas song
TTITLE5=06 - Nancy Wilson - That's what I want for Christmas
TTITLE6=07 - Ray Charles - Spirit of Christmas
TTITLE7=08 - Marlene Dietrich - Still war die Nacht
TTITLE8=09 - The Manhattans - It's that time of the year
TTITLE9=10 - Dionne Warwick - It's beginning to look a lot like Christmas
TTITLE10=11 - Spotnicks - Winterland
TTITLE11=12 - Greg Lake - I believe in Father Christmas
TTITLE12=13 - Beach Boys - Litte St. Nick
TTITLE13=14 - The Ventures - Sleigh ride
TTITLE14=15 - BB King - Christmas celebration
TTITLE15=16 - John Lee Hooker - Blues for Christmas
TTITLE16=17 - Spencer Davis - Christmas Day
TTITLE17=18 - George Shearing and Billy May - Snowfall
EXTD=YEAR: 2007
EXTT0=
EXTT1=
EXTT2=
EXTT3=
EXTT4=
EXTT5=
EXTT6=
EXTT7=
EXTT8=
EXTT9=
EXTT10=
EXTT11=
EXTT12=
EXTT13=
EXTT14=
EXTT15=
EXTT16=
EXTT17=
PLAYORDER=
